<?xml version="1.0" encoding="UTF-8"?>
<svg xmlns="http://www.w3.org/2000/svg" version="1.1" xmlns:xlink="http://www.w3.org/1999/xlink" viewBox="0 0 859.4 751.9">
  <!-- Generator: Adobe Illustrator 29.1.0, SVG Export Plug-In . SVG Version: 2.1.0 Build 142)  -->
  <defs>
    <style>
      .st0 {
        fill: #f53b3b;
      }

      .st1, .st2 {
        fill: #47e6b1;
      }

      .st3 {
        fill: #aeb8ce;
      }

      .st4 {
        fill: #f3a080;
      }

      .st5, .st6 {
        fill: #fff;
      }

      .st7 {
        fill: #4d8af0;
      }

      .st7, .st6, .st2, .st8, .st9 {
        opacity: .5;
      }

      .st7, .st10, .st2, .st11, .st8 {
        isolation: isolate;
      }

      .st12 {
        fill: #343345;
      }

      .st10 {
        fill: #ff146c;
        opacity: 0;
      }

      .st13 {
        fill: #a3b744;
      }

      .st14 {
        fill: none;
      }

      .st15 {
        fill: #282844;
      }

      .st16, .st17 {
        fill: #d5dbea;
      }

      .st18 {
        fill: #85d5d0;
      }

      .st19 {
        fill: #808285;
      }

      .st20 {
        fill: #5f1234;
      }

      .st21 {
        fill: #f1f2f2;
      }

      .st22 {
        fill: #dd5b67;
      }

      .st23 {
        fill: #bcbec0;
      }

      .st24 {
        fill: #231f20;
      }

      .st25 {
        fill: #6d6e71;
      }

      .st26 {
        fill: #07a899;
      }

      .st27 {
        fill: #ea7c6f;
      }

      .st28 {
        fill: #f8bf92;
      }

      .st29 {
        fill: #a7a9ac;
      }

      .st30 {
        fill: #3b3b5b;
      }

      .st31 {
        fill: #38102b;
      }

      .st32 {
        fill: #bd4761;
      }

      .st33 {
        fill: #93a035;
      }

      .st34 {
        fill: #75bae6;
      }

      .st35 {
        fill: #414042;
      }

      .st36 {
        fill: #4a0f2f;
      }

      .st17 {
        mix-blend-mode: multiply;
      }

      .st37 {
        fill: #eaedf4;
      }

      .st38 {
        fill: #434356;
      }

      .st39 {
        fill: #b54b57;
      }

      .st40 {
        fill: #1d1e1e;
      }

      .st8 {
        fill: #f55f44;
      }

      .st41 {
        clip-path: url(#clippath);
      }

      .st42 {
        fill: #e6e7e8;
      }

      .st43 {
        fill: #d1d3d4;
      }
    </style>
    <clipPath id="clippath">
      <path class="st14" d="M367.1,293.2h357.3c5,0,9.1,4.1,9.1,9.1v179c0,5-4.1,9.1-9.1,9.1h-357.3c-5,0-9.1-4.1-9.1-9.1v-179c0-5,4.1-9.1,9.1-9.1Z" transform="translate(937.5 -153.9) rotate(90)"/>
    </clipPath>
  </defs>
  <g class="st11">
    <g id="_x34_746a87b-e7ac-476a-abc6-e77b15a9a3dd">
      <path class="st10" d="M433,10.8l-4.6,2.8v688.9c1.5,1.1,3.1,2.2,4.6,3.2,269.7-186.7,269.7-529,269.7-529L433,10.8Z"/>
      <path class="st7" d="M165.3,48c-1.7-.8-2.6-2.7-2-4.4v-.4h0c0-1-.7-1.9-1.7-2-.6,0-1.2.2-1.6.7h0s-.1.2-.2.4c-.8,1.7-2.7,2.6-4.4,2h-.4c-1,0-1.9.7-2,1.7,0,.6.2,1.2.7,1.6h0c.1,0,.2,0,.4.2,1.7.8,2.6,2.7,2,4.4v.4h0c0,1,.7,1.9,1.7,2,.6,0,1.3-.2,1.7-.8h0s.1-.2.2-.4c.8-1.7,2.7-2.6,4.4-2h.4c1,0,1.9-.7,2-1.7,0-.6-.2-1.2-.7-1.6h0c-.1,0-.2-.2-.4-.2h0Z"/>
      <path class="st7" d="M19.3,373c-1.7-.8-2.6-2.7-2-4.4v-.4h0c0-1-.7-1.9-1.7-2-.6,0-1.2.2-1.6.7h0c0,.1-.1.2-.2.4-.8,1.7-2.7,2.6-4.4,2h-.4c-1,0-1.9.7-2,1.7,0,.6.2,1.2.7,1.6h0l.4.2c1.7.8,2.6,2.7,2,4.4v.4h0c0,1,.7,1.9,1.7,2,.6,0,1.3-.2,1.7-.8h0c0-.1.1-.2.2-.4.8-1.7,2.7-2.6,4.4-2h.4c1,0,1.9-.7,2-1.7,0-.6-.2-1.2-.7-1.6h0c-.1,0-.2-.2-.4-.2h0Z"/>
      <circle class="st8" cx="748.4" cy="254" r="6"/>
      <circle class="st8" cx="850.4" cy="485" r="6"/>
      <path class="st7" d="M704.3,77c-1.7-.8-2.6-2.7-2-4.4v-.4h0c0-1-.7-1.9-1.7-2-.6,0-1.2.2-1.6.7h0s0,.2-.2.4c-.8,1.7-2.7,2.6-4.4,2h-.4c-1,0-1.9.7-2,1.7,0,.6.2,1.2.7,1.6h0s.2,0,.4.2c1.7.8,2.6,2.7,2,4.4v.4h0c0,1,.7,1.9,1.7,2,.6,0,1.3-.2,1.7-.8h0s0-.2.2-.4c.8-1.7,2.7-2.6,4.4-2h.4c1,0,1.9-.7,2-1.7,0-.6-.2-1.2-.7-1.6h0s-.2-.2-.4-.2h-.1Z"/>
      <path class="st7" d="M804.3,705c-1.7-.8-2.6-2.7-2-4.4v-.4h0c0-1-.7-1.9-1.7-2-.6,0-1.2.2-1.6.7h0s0,.2-.2.4c-.8,1.7-2.7,2.6-4.4,2h-.4c-1,0-1.9.7-2,1.7,0,.6.2,1.2.7,1.6h0s.2,0,.4.2c1.7.8,2.6,2.7,2,4.4v.4h0c0,1,.7,1.9,1.7,2,.6,0,1.3-.2,1.7-.8h0s0-.2.2-.4c.8-1.7,2.7-2.6,4.4-2h.4c1,0,1.9-.7,2-1.7,0-.6-.2-1.2-.7-1.6h0s-.2-.2-.4-.2h-.1Z"/>
      <path class="st7" d="M12.3,183c-1.7-.8-2.6-2.7-2-4.4v-.4h0c0-1-.7-1.9-1.7-2-.6,0-1.2.2-1.6.7h0c0,.1,0,.2-.2.4-.8,1.7-2.7,2.6-4.4,2h-.4c-1,0-1.9.7-2,1.7,0,.6.2,1.2.7,1.6h0c.1,0,.2.1.4.2,1.7.8,2.6,2.7,2,4.4v.4h0c0,1,.7,1.9,1.7,2,.6,0,1.3-.2,1.7-.8h0c0-.1,0-.2.2-.4.8-1.7,2.7-2.6,4.4-2h.4c1,0,1.9-.7,2-1.7,0-.6-.2-1.2-.7-1.6h0c-.1,0-.2-.2-.4-.2h-.1Z"/>
      <circle class="st2" cx="79.4" cy="284" r="6"/>
      <circle class="st2" cx="853.4" cy="332" r="6"/>
      <g class="st9">
        <rect class="st1" x="583.4" width="3" height="17"/>
        <rect class="st1" x="576.4" y="7" width="17" height="3"/>
      </g>
      <g class="st9">
        <rect class="st1" x="26.4" y="702" width="3" height="17"/>
        <rect class="st1" x="19.4" y="709" width="17" height="3"/>
      </g>
      <g class="st9">
        <rect class="st1" x="709.4" y="396" width="3" height="17"/>
        <rect class="st1" x="702.4" y="403" width="17" height="3"/>
      </g>
      <polygon class="st2" points="795.6 123 802 128.9 811.2 115.5 814.4 118.2 802 134.3 792.9 124.1 795.6 123"/>
      <g>
        <g>
          <path class="st3" d="M700.5,599.5s-69.3,17.1-154.8,17.1-154.8-17.1-154.8-17.1c0,0,69.3-17.1,154.8-17.1s154.8,17.1,154.8,17.1Z"/>
          <g>
            <g>
              <g>
                <rect class="st15" x="433.7" y="190.6" width="224" height="402.4" rx="17.6" ry="17.6"/>
                <g>
                  <path class="st16" d="M367.1,293.2h357.3c5,0,9.1,4.1,9.1,9.1v179c0,5-4.1,9.1-9.1,9.1h-357.3c-5,0-9.1-4.1-9.1-9.1v-179c0-5,4.1-9.1,9.1-9.1Z" transform="translate(937.5 -153.9) rotate(90)"/>
                  <g class="st41">
                    <path class="st37" d="M693.5,547.4l-114.4-8.1-15.9-55.1,112.5-18.7c3.2-.5,5.4-3.6,4.9-6.8-.5-3.2-3.6-5.4-6.8-4.9l-173.8,28.8,4.1-16.2,177.4-33.3c1.7-.3,2.8-2,2.5-3.7-.3-1.7-2-2.8-3.7-2.5l-69.5,13.1-42.2-52.8,22-12.7c1.6-.9,2.7-2.5,2.9-4.4l6.1-47.8,91.2-4.9c1.7,0,3.1-1.6,3-3.3,0-1.7-1.6-3.1-3.3-3l-90,4.8,16.8-130.6c.4-3.2-1.9-6.2-5.1-6.6-3.2-.4-6.2,1.9-6.6,5.1l-23.4,181.8-43.9,25.2,7.4-68.8c.3-.6.5-1.2.6-1.8.1-.8,0-1.6-.1-2.3l15.5-143.6c.3-3.2-2-6.2-5.2-6.5-3.3-.4-6.2,2-6.5,5.2l-15,139.7-30.3-4.3-71.6-136.2c-.8-1.5-2.7-2.1-4.3-1.3-1.5.8-2.1,2.7-1.3,4.3l48.6,92.5-14.4,34.7-39.9-5.7c-3.2-.5-6.2,1.8-6.7,5-.5,3.2,1.8,6.2,5,6.7l39.5,5.6,6.6,164.9-54.5,30.6c-1.5.9-2.1,2.8-1.2,4.3.6,1,1.7,1.6,2.8,1.6.5,0,1.1-.1,1.5-.4l75.8-42.5-31.5,125.8c-.8,3.2,1.1,6.4,4.3,7.2.5.1,1,.2,1.4.2,2.6,0,5.1-1.8,5.7-4.5l26.5-105.9,54.6-9.1,17.4,60.4c.7,2.4,2.8,4.1,5.3,4.3l118.5,8.4c.1,0,.3,0,.4,0,3.1,0,5.7-2.4,5.9-5.5.2-3.3-2.2-6.1-5.5-6.3ZM603.8,441.3l-98,18.4,10.6-42.5,46.6-26.8,40.7,51ZM479.7,274.9l17.1,32.4-28.8-4.1,11.8-28.3ZM472.2,475.4l-6.4-160.5,67.7,9.6-7.8,72.1c0,.5,0,1,0,1.5l-17.5,10c-1.4.8-2.4,2.1-2.8,3.7l-13.1,52.2-20.3,11.4Z"/>
                  </g>
                </g>
                <g>
                  <path class="st15" d="M503.8,196.2h83.9v13.3c0,4-3.3,7.3-7.3,7.3h-69.2c-4,0-7.3-3.3-7.3-7.3v-13.3h0Z"/>
                  <g>
                    <path class="st30" d="M561.4,208h-42c-1.4,0-2.6-1.2-2.6-2.6h0c0-1.4,1.2-2.6,2.6-2.6h42c1.4,0,2.6,1.2,2.6,2.6h0c0,1.4-1.2,2.6-2.6,2.6Z"/>
                    <path class="st30" d="M577.2,205.4c0,1.4-1.2,2.6-2.6,2.6s-2.6-1.2-2.6-2.6,1.2-2.6,2.6-2.6,2.6,1.2,2.6,2.6Z"/>
                  </g>
                </g>
              </g>
              <path class="st15" d="M586.4,571h-81.3c-2,0-3.6-1.6-3.6-3.6h0c0-2,1.6-3.6,3.6-3.6h81.3c2,0,3.6,1.6,3.6,3.6h0c0,2-1.6,3.6-3.6,3.6Z"/>
            </g>
            <g>
              <polygon class="st26" points="490.7 491.6 510.9 412.2 587.6 367.5 600.8 255.7 602.3 255.9 589 368.4 588.7 368.6 512.1 413.2 492.7 489.8 537.3 482.1 537.6 483.6 490.7 491.6"/>
              <g>
                <path class="st17" d="M614,257.8c0,2.9-5.6,5.3-12.5,5.3s-12.5-2.4-12.5-5.3,5.6-5.3,12.5-5.3,12.5,2.4,12.5,5.3Z"/>
                <path class="st0" d="M601.5,226.6c-6.1,0-11.1,5-11.1,11.1s11.1,21.3,11.1,21.3c0,0,11.1-15.1,11.1-21.3s-5-11.1-11.1-11.1ZM601.5,244c-3.3,0-6-2.7-6-6s2.7-6,6-6,6,2.7,6,6-2.7,6-6,6Z"/>
              </g>
              <g>
                <path class="st17" d="M549.8,483.1c0,2.9-5.6,5.3-12.5,5.3s-12.5-2.4-12.5-5.3,5.6-5.3,12.5-5.3,12.5,2.4,12.5,5.3Z"/>
                <path class="st34" d="M537.3,451.9c-6.1,0-11.1,5-11.1,11.1s11.1,21.3,11.1,21.3c0,0,11.1-15.1,11.1-21.3s-5-11.1-11.1-11.1ZM537.3,469.3c-3.3,0-6-2.7-6-6s2.7-6,6-6,6,2.7,6,6-2.7,6-6,6Z"/>
              </g>
            </g>
          </g>
        </g>
        <path class="st3" d="M771.2,622.9s-46.9,14.3-104.7,14.3-104.7-14.3-104.7-14.3c0,0,46.9-14.3,104.7-14.3s104.7,14.3,104.7,14.3Z"/>
        <g>
          <g>
            <path class="st13" d="M656.4,280.2l-11.2,88s-6.3,4.6-15.2,5.8c-.8,0-1.6.2-2.4.2-2.5.1-5.1,0-7.8-.6-2.4-.5-4.9-3.4-7.2-7.4-.3-.5-.6-.9-.8-1.4-7.2-13.2-13.2-36.3-13.2-36.3l17.7-9.6,10,16.2,3.1-16.2s9-44.3,11.2-47.5c2.4-3.5,11.8-6.3,11.8-6.3l3.9,15Z"/>
            <g>
              <path class="st4" d="M603.8,309.8s5.1,0,6.4,1.2c1.2,1.2,4.5,10.7,4.5,10.7,0,0-5,8.6-6.7,8.7-1.7,0-9.4-1.9-9.4-1.9l-1.4-9.1,6.6-9.6Z"/>
              <path class="st38" d="M619.9,324.8l-13.3,5.3c-1,.4-2.1,0-2.4-1.1l-7.8-19.6-.5-1.1-1.4-3.6c-.4-1,0-2.1,1-2.4l13.3-5.3c1-.4,2.1,0,2.4,1l1.4,3.5.5,1.1,7.9,19.7c.4,1,0,2.1-1.1,2.4Z"/>
              <polygon class="st12" points="613.1 302.6 596.3 309.4 595.9 308.2 612.6 301.5 613.1 302.6"/>
              <path class="st12" d="M599.1,304.8c0,.8-.7,1.5-1.5,1.5s-1.5-.7-1.5-1.5.7-1.5,1.5-1.5,1.5.7,1.5,1.5Z"/>
              <g>
                <path class="st4" d="M595.2,328.2c4.8,1.1,10.3-1.2,10.3-1.2.3-1,.4-2.2.4-3.5,0-.5,0-1.1,0-1.6-.1-1.2-.3-2.5-.6-3.8-.1-.6-.3-1.1-.4-1.7-.4-1.5-.8-2.9-1.3-4.3-.2-.6-.4-1.1-.6-1.7-.5-1.4-1-2.7-1.4-3.6-.5-1.1-.7-1.7-.7-1.7-4.5.3-10.3,4.3-10.3,4.3-.3,1.7-.3,3.5,0,5.2.9,6.9,4.9,13.5,4.9,13.5Z"/>
                <g>
                  <path class="st39" d="M596.2,313.2s.6,0,1.5,0c.9,0,2.1-.2,3.4-.4.8-.2,1.5-.4,2.2-.6-.2-.6-.4-1.1-.6-1.7-.6,0-1.3,0-2,.2-1.4.3-2.6,1-3.4,1.5-.8.6-1.2,1.1-1.2,1.1Z"/>
                  <path class="st39" d="M598.3,318.8s.6,0,1.5,0c.9,0,2.1,0,3.3-.3.7-.1,1.4-.3,2-.5-.1-.6-.3-1.1-.4-1.7-.6,0-1.3,0-2,.1-1.4.2-2.5.8-3.2,1.4-.8.5-1.2,1-1.2,1Z"/>
                  <path class="st39" d="M598.5,324.4s.6,0,1.6,0c.9,0,2.2,0,3.5-.3.8-.2,1.6-.4,2.2-.6,0-.5,0-1.1,0-1.6-.8,0-1.6,0-2.5.1-1.4.3-2.6.9-3.4,1.4-.8.5-1.3,1-1.3,1Z"/>
                </g>
                <path class="st28" d="M590.3,314.7c.7-1.3,1.5-2.6,2.6-3.6,1-.9,2.2-1.6,3.5-2.2,1.4-.7,2.9-1.5,4.4-1.9.2,0,.4,0,.7-.1-.5-1.1-.7-1.7-.7-1.7-4.5.3-10.3,4.3-10.3,4.3-.3,1.7-.3,3.5,0,5.2Z"/>
              </g>
            </g>
          </g>
          <g>
            <g>
              <g>
                <path class="st32" d="M609.9,615.7c.2-1,.7-2.2,2-2.8,3.9-1.7,18.4-7,22.3-10.1,3-2.4,5.7-7.5,6.8-9.7l26.9,1.4c1.5,6.9,2.5,20.1,2.7,22.8l-60.7-1.6Z"/>
                <polygon class="st5" points="609.7 621.7 670.5 623.3 670.7 617.3 609.9 615.7 609.7 621.7"/>
                <g>
                  <path class="st5" d="M639.3,604.6c0,0,0,.1.1.2.3.5.4,1.3-.3,1.6-.4.2-.8,0-1.2,0-1.3-.3-2.5-.9-3.7-1.6-1.2-.7-2.6-1.5-3.4-2.8-.8-1.3.4-2.4,1.8-2.1,2.5.6,5.3,2.4,6.6,4.6Z"/>
                  <path class="st5" d="M634.7,607.7c0,0,0,.1.1.2.3.5.4,1.3-.3,1.6-.4.2-.8,0-1.2,0-1.3-.3-2.5-.9-3.7-1.6-1.2-.7-2.6-1.5-3.4-2.8-.8-1.3.4-2.4,1.8-2.1,2.5.6,5.3,2.4,6.6,4.6Z"/>
                  <path class="st5" d="M629,609.7c0,0,0,.1.1.2.3.5.4,1.3-.3,1.6-.4.2-.8,0-1.2,0-1.3-.3-2.5-.9-3.7-1.6-1.2-.7-2.6-1.5-3.4-2.8-.8-1.3.4-2.4,1.8-2.1,2.5.6,5.3,2.4,6.6,4.6Z"/>
                </g>
              </g>
              <g>
                <path class="st32" d="M736.3,618.4s-13.2,9.3-16.8,9.6c-3.6.3-22.5-4.5-22.5-6.9s.4-3.8,1-7.4c1.1-6.7,2.7-15.4,3.5-16.6,1.2-1.8,0-12.6,0-12.6,0,0,19.5-4.5,22.2-3.6,2.1.7,8.4,22.6,11.2,32.6.8,2.9,1.3,4.9,1.3,4.9Z"/>
                <path class="st5" d="M736.3,618.4s-13.2,9.3-16.8,9.6c-3.6.3-22.5-4.5-22.5-6.9s.4-3.8,1-7.4c6.1,2.4,19.3,7.2,23.6,5.6,2.9-1.1,8.5-3.6,13.3-5.8.8,2.9,1.3,4.9,1.3,4.9Z"/>
              </g>
              <path class="st38" d="M736.3,592.6c-.4.2-.9.3-1.3.5-22.6,8.3-43.1,2.7-43.1,2.7l-3-103.2-14.2-80.5-.8-5.1-.2,5.1-3.7,76.8,6.9,109.1c-1.3.6-2.7,1-4.2,1.5-19.1,5.6-43.8-1.5-43.8-1.5,0,0,2.8-95.7,2.3-102.9-.3-4.6,2.8-53.4,5-87,1.2-18.1,2.1-31.8,2.1-31.8h83.5l-.3,27.8,2.1,84.9s14.4,103,12.7,103.6Z"/>
              <path class="st12" d="M721.7,376.3l-.3,27.8c-17.8,5.4-33.6,7.6-46.8,8l-.8-5.1-.2,5.1c-16.8.5-29.6-1.9-37.5-4,1.2-18.1,2.1-31.8,2.1-31.8h83.5Z"/>
              <path class="st5" d="M719.5,600.2c0,0,.1,0,.2,0,.5.3,1.2.8.8,1.5-.2.3-.6.5-.9.7-1.2.6-2.6.8-3.9,1-1.4.2-3,.3-4.4-.2-1.4-.5-1.1-2.2.2-2.8,2.3-1,5.6-1.3,8-.3Z"/>
              <path class="st5" d="M719.5,605.4c0,0,.1,0,.2,0,.5.3,1.2.8.8,1.5-.2.3-.6.5-.9.7-1.2.6-2.6.8-3.9,1-1.4.2-3,.3-4.4-.2-1.4-.5-1.1-2.2.2-2.8,2.3-1,5.6-1.3,8-.3Z"/>
              <path class="st5" d="M720,610.2c0,0,.1,0,.2,0,.5.3,1.2.8.8,1.5-.2.3-.6.5-.9.7-1.2.6-2.6.8-3.9,1-1.4.2-3,.3-4.4-.2-1.4-.5-1.1-2.2.2-2.8,2.3-1,5.6-1.3,8-.3Z"/>
            </g>
            <path class="st12" d="M676.8,598c-1.3.6-2.7,1-4.2,1.5l-8-110.5,7.8-92.6,1.5,10.7-.2,5.1-3.7,76.8,6.9,109.1Z"/>
            <path class="st12" d="M736.3,592.6c-.4.2-.9.3-1.3.5l-17-104.2-1.1-112.7h4.9l-.3,27.8,2.1,84.9s14.4,103,12.7,103.6Z"/>
          </g>
          <path class="st13" d="M671.2,259.5s-19.7,4.8-23.5,8.1c-3.8,3.3-14.9,112.3-13.5,128.7,0,0,40.8,21.8,89.8,2,0,0-.3-122.2-2.4-126.9-2.1-4.8-17-11.4-17-11.4l-25.8,8.7-7.7-9.1Z"/>
          <g>
            <g>
              <path class="st4" d="M697.3,257.1c-.4.4-19.1,14.3-19.1,14.3,0,0,.4-8.5.6-13,0-1.4.1-2.4.1-2.6,0-1.8-1.5-9.5-1.5-9.5l18.9-8.6s.3,3.9.6,8.2c.3,5.2.7,11,.4,11.2Z"/>
              <path class="st27" d="M696.9,245.9c-5.2,3.8-16.8,12.1-18,12.5,0,0,0,0-.1,0,0-1.4.1-2.4.1-2.6,0-1.8-1.5-9.5-1.5-9.5l18.9-8.6s.3,3.9.6,8.2Z"/>
            </g>
            <g>
              <path class="st4" d="M698.9,238.3s-.5,1.4-2.6,3.2h0c-.4.4-.9.8-1.5,1.2-2.2,1.6-23,10.5-26.2,10.1-3.2-.4-6.2-11.4-6.4-12.6-1-7.1-3.9-29-3.9-29,7.9-23.9,36-11.5,39.2-9.2,3.2,2.3,1.3,36.2,1.3,36.2Z"/>
              <path class="st28" d="M696.3,241.6c-.4.4-.9.8-1.5,1.2-2.2,1.6-23,10.5-26.2,10.1-3.2-.4-6.2-11.4-6.4-12.6,2,4.8,4.2,11.5,6.5,11.3,3.4-.3,25-8.6,27.5-10Z"/>
            </g>
            <g>
              <path class="st36" d="M662.3,219.8s1.2-6.3,4-5.4c2.8.9,2,1.5,2,1.5l-6.1,3.8Z"/>
              <path class="st36" d="M690.7,213.9s-8.3-6.8-10.7-3.5c-1.4,1.9,0,2.9,0,2.9l10.7.6Z"/>
              <g>
                <ellipse class="st40" cx="684.5" cy="223" rx="2.5" ry="4"/>
                <path class="st5" d="M689.3,220.8s-.9,1.4-2.4,2c-1.5.6-3.1.2-3.1.2,0,0,.9-1.4,2.4-2,1.5-.6,3.1-.2,3.1-.2Z"/>
              </g>
              <g>
                <ellipse class="st40" cx="665.3" cy="224.5" rx="1.9" ry="3"/>
                <path class="st5" d="M661.9,223s.7.9,1.7,1.3c1.1.4,2.2.3,2.2.3,0,0-.7-.9-1.7-1.3-1.1-.4-2.2-.3-2.2-.3Z"/>
              </g>
              <path class="st22" d="M682.1,241.6c-1.9.9-4.2,1-6.1.2.7,1,1.6,1.6,2.8,1.5,1.2,0,2.5-.8,3.3-1.7Z"/>
              <path class="st27" d="M665.3,233.7c-.3.9-2.2,1-4.2.2-2-.7-3.4-2.1-3-2.9.3-.9,2.2-1,4.2-.2,2,.7,3.4,2.1,3,2.9Z"/>
              <path class="st27" d="M690.5,229.6c.3,1.3-1.8,3-4.8,3.8-3,.8-5.7.3-6.1-1-.3-1.3,1.8-3,4.8-3.8,3-.8,5.7-.3,6.1,1Z"/>
              <path class="st22" d="M686.6,235.7s-.1.2-.4.5c-.2.3-.6.7-1.1,1.2-1,1-2.7,2.1-4.9,2.6-2.1.5-4.2.4-5.5,0-.7-.2-1.2-.4-1.6-.6-.3-.2-.5-.3-.5-.3,0,0,.2,0,.6.1.4,0,.9.2,1.6.2,1.4.1,3.2,0,5.2-.5,2-.5,3.6-1.3,4.8-2,.6-.4,1-.7,1.3-.9.3-.2.5-.4.5-.4Z"/>
              <g>
                <path class="st27" d="M670.8,232.1v2.3s3.6,1.3,6.5-.3c0,0,.8-1.6.8-2.8,0,0-5.2,1.9-7.3.8Z"/>
                <path class="st22" d="M677.3,234.1c-2.1,1.4-5,1.6-7.4.7.4-1.4.2-3-.2-4.4-.3-1.5-.8-2.9-.8-4.4s.5-3.1,1.7-4c-.9,1.8-.4,4,.2,6,.6,2,1.2,4.1.5,6,1.9.4,4.1.6,6,0Z"/>
              </g>
            </g>
            <g>
              <path class="st28" d="M695.8,239.2c4.3-.3,7.4-2.9,9-5,.4-.5.7-.9.9-1.3,1.2-2.2,1.6-9.9-1.6-11.7-2.2-1.2-3.8.6-4.6,1.8h0c-.3.5-.5.9-.5.9l-3.3,15.3Z"/>
              <path class="st4" d="M695.8,239.2c4.3-.3,7.4-2.9,9-5,.1-.2.3-.4.4-.6,1.2-2.2,1.6-9.9-1.6-11.7-1.8-1-3.2,0-4,1h0c-.3.5-.5.9-.5.9l-3.3,15.3Z"/>
              <path class="st27" d="M705.2,227.3c.2.6,0,1.3-.1,1.9-.9,2.6-3.4,4.5-5.9,6.4.7-1.2,1-2.7.9-4,0-.5-.2-1-.2-1.4,0-1.9,4.4-6.4,5.3-2.8Z"/>
              <path class="st39" d="M697.9,236.2s0,0,.1,0c0,0,.2-.1.4-.2.3-.2.8-.6,1.2-1.1.4-.5.8-1.2,1-2,.2-.8.1-1.8-.3-2.7,0-.1-.1-.2-.2-.3h0c0-.1,0,0,0,0h0s0,0,0,0h0s0,0,0,0h0c0,0,0-.2,0-.2,0,0,.1-.2.2-.3.2-.4.5-.7.7-1.1.3-.3.5-.6.8-.9.3-.3.5-.5.8-.7.3-.2.5-.3.8-.4.3,0,.5,0,.7.1.2,0,.3.2.3.3,0,0,0,.1,0,.1,0,0,0,0,0-.1,0,0,0-.2-.3-.4-.2-.1-.4-.2-.8-.2-.3,0-.7.1-1.1.3-.3.2-.6.4-1,.7-.3.3-.6.6-.9.9-.3.3-.6.7-.9,1.1,0,0-.1.2-.2.3v.2c0,0-.2.2-.2.2v.2c0,0,0,.1,0,.2v.2c.2,0,.2.2.3.3.4.8.5,1.6.4,2.4,0,.8-.3,1.4-.7,2-.3.5-.7.9-.9,1.2-.1.1-.3.2-.3.3,0,0-.1.1-.1.1Z"/>
            </g>
            <path class="st5" d="M678.9,255.8s-4.5,1.2-7.7,3.7c-3.1,2.5-2.2,18.1-2.2,18.1l9.2-6.2,8.4,9.7s17.9-18.2,18.2-21.1c.3-2.8-7.4-6.1-7.4-6.1l-17.7,12.6-.7-10.7Z"/>
            <g>
              <path class="st31" d="M706.1,211.5c.1.9.2,2.2.2,3.6,0,3.8-.5,8.2-.5,8.2,0,0-5-2.7-7.1,2.6l-3.2-16.3s-14.2,0-20.5-6.1c0,0-15,6.1-15.2,18.9-1.9-2.9-3.4-6-4.2-9.3-3.4-1-6.3-3.4-7.9-6.6,0,0,.2,0,.3,0,3.3-1.1,5.3-4.3,7.2-7.2,1-1.6,2.8-3.6,4.6-4.8-.7-4.3,1.9-7.7,1.9-7.7,4.2,5.4,23.4,2.6,29,3.6.7.1,1.4.3,2,.5-.7-1.6-1.8-3.1-3.2-4.2,2-1.1,4.7-.6,6.5.8,1.8,1.4,2.9,3.7,3.4,5.9,1.1-.9,2.7-.4,3.9.3,2,1.2,3.6,3,4.5,5.2-1.5-1-3.4-.6-5.1,0-.2,0-.4.2-.6.2,2.8,4.5,3.6,10.1,4,12.4Z"/>
              <path class="st36" d="M706.1,211.5c.1.9.2,2.2.2,3.6-.6-1-1.2-1.9-1.9-2.8.2,1.4,0,2.8-.8,4.1-.4-3-1.1-6-2.6-8.6-1.5-2.6-3.9-4.6-6.9-4.9.8,1.1,1.6,2.2,2.4,3.4-7.6,0-15.4-2.8-21.3-7.6-7.3,1-14.1,5.8-17.5,12.4-.4-.9-.8-2.2-.7-3.2-2.4.7-5,.5-7.3-.5-.6-.3-1.2-.6-1.7-1,.3,0,.5-.2.8-.3,2.8-1.3,4.7-4.2,6.4-6.9,1-1.6,2.8-3.6,4.6-4.8-.7-4.3,1.9-7.7,1.9-7.7,4.2,5.4,23.4,2.6,29,3.6.7.1,1.4.3,2,.5-.7-1.6-1.8-3.1-3.2-4.2,2-1.1,4.7-.6,6.5.8,1.8,1.4,2.9,3.7,3.4,5.9,1.1-.9,2.7-.4,3.9.3,2,1.2,3.6,3,4.5,5.2-1.5-1-3.4-.6-5.1,0-.2,0-.4.2-.6.2,1.4,2.3,2.4,4.9,3,7.2.6,2.2.8,4.1,1,5.2Z"/>
              <path class="st20" d="M702.7,198.9c-.2,0-.4.2-.6.2,1.4,2.3,2.4,4.9,3,7.2-.4,1-.6,2-.5,3.1-1.1-2.9-2.3-5.9-4.3-8.4-.1.6-.5,1.2-.9,1.6,0-3-1.2-6.1-3.3-8.2.7,1.8,1,3.8.6,5.7-3-2.9-7.1-4.8-11.2-5,.7,1.8,1.6,3.5,2.6,5.2-5.2-.7-10.1-2.7-14.3-5.8-3.5,1.2-7.4.9-10.7-.7.4,1.6.9,3.2,1.7,4.7-3.2-.3-5.6,2.8-8.1,4.8-2.2,1.7-4.9,2.7-7.7,2.9,2.8-1.3,4.7-4.2,6.4-6.9,1-1.6,2.8-3.6,4.6-4.8-.7-4.3,1.9-7.7,1.9-7.7,4.2,5.4,23.4,2.6,29,3.6.7.1,1.4.3,2,.5-.7-1.6-1.8-3.1-3.2-4.2,2-1.1,4.7-.6,6.5.8,1.8,1.4,2.9,3.7,3.4,5.9,1.1-.9,2.7-.4,3.9.3,2,1.2,3.6,3,4.5,5.2-1.5-1-3.4-.6-5.1,0Z"/>
            </g>
          </g>
          <path class="st33" d="M647.4,276.9s-6.4,48.7-7.6,58.7c-1.2,9.9-3.8,34.7-3.8,34.7,0,0,.5-30.4,1.7-44.5,1.2-14.1,9.6-48.9,9.6-48.9Z"/>
          <g>
            <g>
              <path class="st4" d="M683.7,412.9c.7,2,13.7-4.6,13.7-4.6l3,2.7-5.1,3.3-4.3,7.7s1,1.4,2.4,3c0,0,0,0,0,0,0,0,0,0,0,0,.1.1.2.2.3.4,0,0,0,0,0,0,0,0,0,0,.1.1.1.2.3.4.5.6.7.8,1.4,1.6,2.1,2.2,0,0,.2.2.2.2.4.4.8.7,1.2,1,.4.3.8.5,1.1.5l4.6-5.2s9.5.5,10.8-.2c.5-.3,1.8-2.4,3.2-4.9.5-.9,1-1.8,1.5-2.7,0,0,0,0,0,0,.2-.3,1.6-6.1,1.7-6.4l-12.4-8-1.7,2.4c-.7-.1-1.4-.3-2.1-.4-2.6-.4-5.5-.7-7.7-.5-.9.1-1.8.3-2.4.7-4.5,2.4-11.5,6-10.7,8Z"/>
              <path class="st39" d="M693.2,425.1c.2.2.3.4.5.6,0,0,0,0,.1-.1.6-.9,1.4-2,2.3-3.2.9-1.2,1.8-2.2,2.5-2.9.2-.2.4-.3.5-.5.2-.1.3-.2.4-.3.2-.2.4-.3.4-.3,0,0-.2,0-.5.1-.2,0-.3,0-.6.2-.2,0-.4.2-.7.3-1,.5-2.3,1.4-3.3,2.7-.9,1.2-1.4,2.5-1.7,3.5Z"/>
              <path class="st39" d="M696.3,428.5c0,0,.2.2.2.2.2-.2.4-.6.6-.9.6-.9,1.4-2,2.3-3.2.9-1.2,1.8-2.2,2.5-2.9.2-.2.4-.3.5-.5.2-.1.3-.2.4-.3.2-.2.4-.3.4-.3,0,0-.2,0-.5.1-.2,0-.3,0-.6.2-.2,0-.4.2-.7.3-1,.5-2.3,1.4-3.3,2.7-1,1.3-1.5,2.7-1.7,3.7,0,.4-.2.7-.2.9Z"/>
            </g>
            <path class="st13" d="M716.7,266.5s13.3,5,16.5,8.5c3.2,3.4,26.3,81.3,26.6,85.1.3,3.8-35.8,54.7-35.8,54.7l-20.7-15.9,27.4-41.9-13.9-41.7v-48.7Z"/>
          </g>
          <polygon class="st33" points="716.7 284 723.7 335.8 730.7 356.9 699.1 396.3 724 414.7 728.5 408.3 706.6 393.7 736.4 358.1 726.6 333 716.7 284"/>
        </g>
        <g>
          <polygon class="st5" points="714.3 178.5 736.3 153.9 745.8 169.7 714.3 178.5"/>
          <polygon class="st5" points="703.7 177.1 699.2 156.8 710.6 157.1 703.7 177.1"/>
          <polygon class="st5" points="716.8 192.8 738.7 190.7 738.8 201.2 716.8 192.8"/>
        </g>
        <path class="st0" d="M395.1,225c-15.7,0-28.5,12.8-28.5,28.5s28.5,54.5,28.5,54.5c0,0,28.5-38.8,28.5-54.5s-12.8-28.5-28.5-28.5ZM395.1,269.6c-8.5,0-15.5-6.9-15.5-15.5s6.9-15.5,15.5-15.5,15.5,6.9,15.5,15.5-6.9,15.5-15.5,15.5Z"/>
      </g>
      <g>
        <ellipse class="st3" cx="278.9" cy="591.3" rx="163.3" ry="3.7"/>
        <g>
          <g>
            <path class="st35" d="M144.9,535.9h1.9v16h-17.9c0-8.8,7.2-16,16-16Z" transform="translate(275.7 1087.8) rotate(180)"/>
            <path class="st35" d="M411,535.9h17.9v16h-1.9c-8.8,0-16-7.2-16-16h0Z"/>
          </g>
          <g>
            <rect x="164.7" y="488.5" width="228.4" height="65.8"/>
            <ellipse cx="278.9" cy="540.7" rx="26.6" ry="25.8"/>
          </g>
          <g>
            <path class="st24" d="M378,487h39.7v88.3c0,8.8-7.2,16-16,16h-7.7c-8.8,0-16-7.2-16-16v-88.3h0Z"/>
            <path class="st24" d="M140.1,487h39.7v88.3c0,8.8-7.2,16-16,16h-7.7c-8.8,0-16-7.2-16-16v-88.3h0Z"/>
          </g>
          <g>
            <rect x="378" y="487" width="39.7" height="57.1"/>
            <rect x="140.1" y="487" width="39.7" height="57.1"/>
          </g>
          <g>
            <path class="st23" d="M356.7,521.6h51.7c10.8,0,12.8-37.6,12.8-42v-28.4c0-13.4-7.3-25-12.1-25h-52.4v95.3Z"/>
            <path class="st23" d="M201.1,521.6h-51.7c-10.8,0-12.8-37.6-12.8-42v-28.4c0-13.4,7.3-25,12.1-25h52.4v95.3Z"/>
          </g>
          <g>
            <g>
              <g>
                <path class="st19" d="M110.7,375.4h25.8c7,0,12.7,5.7,12.7,12.7v3.3c0,7-5.7,12.7-12.7,12.7h0c-14.2,0-25.8-11.6-25.8-25.8v-3h0Z" transform="translate(259.9 779.7) rotate(-180)"/>
                <path class="st23" d="M110.7,380.2h37.7v4.9c0,2.6-2.1,4.8-4.8,4.8h-23.3c-5.3,0-9.7-4.3-9.7-9.7h0Z" transform="translate(259.1 770) rotate(180)"/>
                <path class="st5" d="M119.9,384.9h20.2c2.4,0,4.3-1.9,4.3-4.3h0c0-2.4-1.9-4.3-4.3-4.3h-20.2c-2.4,0-4.3,1.9-4.3,4.3h0c0,2.4,1.9,4.3,4.3,4.3Z"/>
              </g>
              <path class="st35" d="M136.5,404.2h19.3c1.9,0,3.4-1.5,3.4-3.4h0c0-1.9-1.5-3.4-3.4-3.4h-19.3c-1.9,0-3.4,1.5-3.4,3.4h0c0,1.9,1.5,3.4,3.4,3.4Z"/>
              <path class="st19" d="M138.1,404.2h19.3c1.9,0,3.4-1.5,3.4-3.4h0c0-1.9-1.5-3.4-3.4-3.4h-19.3c-1.9,0-3.4,1.5-3.4,3.4h0c0,1.9,1.5,3.4,3.4,3.4Z"/>
              <path class="st42" d="M139.1,397.4h18.2c1.9,0,3.5,1.5,3.5,3.4h-18.2c-1.9,0-3.5-1.5-3.5-3.4Z"/>
            </g>
            <g>
              <g>
                <path class="st19" d="M434.4,375.4h0c7,0,12.7,5.7,12.7,12.7v3.3c0,7-5.7,12.7-12.7,12.7h-25.8v-3c0-14.2,11.6-25.8,25.8-25.8Z"/>
                <path class="st23" d="M419,380.2h23.3c2.6,0,4.8,2.1,4.8,4.8v4.9h-37.7c0-5.3,4.3-9.7,9.7-9.7Z"/>
                <path class="st5" d="M437.9,384.9h-20.2c-2.4,0-4.3-1.9-4.3-4.3h0c0-2.4,1.9-4.3,4.3-4.3h20.2c2.4,0,4.3,1.9,4.3,4.3h0c0,2.4-1.9,4.3-4.3,4.3Z"/>
              </g>
              <path class="st35" d="M421.2,404.2h-19.3c-1.9,0-3.4-1.5-3.4-3.4h0c0-1.9,1.5-3.4,3.4-3.4h19.3c1.9,0,3.4,1.5,3.4,3.4h0c0,1.9-1.5,3.4-3.4,3.4Z"/>
              <path class="st19" d="M419.6,404.2h-19.3c-1.9,0-3.4-1.5-3.4-3.4h0c0-1.9,1.5-3.4,3.4-3.4h19.3c1.9,0,3.4,1.5,3.4,3.4h0c0,1.9-1.5,3.4-3.4,3.4Z"/>
              <path class="st42" d="M418.6,397.4h-18.2c-1.9,0-3.5,1.5-3.5,3.4h18.2c1.9,0,3.5-1.5,3.5-3.4Z"/>
            </g>
          </g>
          <g>
            <path class="st43" d="M386,323.9c-29.3-1.6-66.5-2.6-107.1-2.6s-77.9,1-107.1,2.6c-4.4.2-27.2,113.9-27.2,113.9-1.3,7.2-2,14.5-2,21.9v16.6c0,6,4.7,45.4,10.6,45.4h251.4c5.8,0,10.6-39.3,10.6-45.4v-16.7c0-7.3-.7-14.7-2-21.9,0,0-22.8-113.6-27.2-113.9Z"/>
            <g>
              <path class="st42" d="M317.2,373.6h-145.5c-5.9,0-10.9,4.1-12.2,9.8,0,0,0,.2,0,.2-2,9.3-1.5,19,1.4,28h0c1.9,5.8,7.4,9.8,13.5,9.7,141.9-1.7,143-22.1,142.8-47.8Z"/>
              <g>
                <path class="st21" d="M179.9,447.1c-4.6,0-8.3-41.9-8.3-48.4v-17.7c0-7.8.5-15.7,1.6-23.3,0,0,2.2-14.8,5.2-34.1-2.2.1-4.4.2-6.6.4-3,.2-15,55.1-22,88.6h.7c3.7,0,6.7,21.4,6.7,25v14h119.6v-4.4h-97Z"/>
                <path class="st29" d="M413.2,437.8s-14.9-74.3-22.9-102.8v106.2c0,29.6-24.7,53.5-55.1,53.5h-168.6c-13,0-21.9,13.3-16,24.5.8,1.5,1.7,2.4,2.6,2.4h251.4c5.8,0,10.6-39.3,10.6-45.4v-16.7c0-7.3-.7-14.7-2-21.9Z"/>
                <path class="st23" d="M386,323.9c-2.1-.1-4.4-.2-6.6-.4,3,19.3,5.2,34.1,5.2,34.1,1.1,7.7,1.6,15.5,1.6,23.3v17.8c0,6.4-3.7,48.4-8.3,48.4h-101v4.4h123.6v-14c0-3.6,3-25,6.7-25h.7c-7-33.5-18.9-88.4-22-88.6Z"/>
              </g>
            </g>
          </g>
          <path d="M222.5,502.2h112.9c17.1,0,30.9,13.8,30.9,30.9h-174.7c0-17.1,13.8-30.9,30.9-30.9Z"/>
          <path d="M259.5,430.8h38.7c33,0,59.9,26.8,59.9,59.9h-158.5c0-33,26.8-59.9,59.9-59.9Z" transform="translate(557.8 921.5) rotate(180)"/>
          <path d="M156.3,430.8h245.2c4.7,0,8.5,3.8,8.5,8.5h0c0,17.8-14.5,32.3-32.3,32.3h-197.6c-17.8,0-32.3-14.5-32.3-32.3h0c0-4.7,3.8-8.5,8.5-8.5Z"/>
          <path class="st25" d="M319.6,483.9h-81.3c-9.7,0-18.4-5.8-22.5-14.8l-9.9-22.1c-2.3-5.1,1.3-10.9,6.8-10.9h132.6c5.5,0,9.1,5.8,6.8,10.9l-9.9,22.1c-4.1,9-12.8,14.8-22.5,14.8Z"/>
          <path d="M312.9,480.9h-68c-8.1,0-15.4-4.8-18.8-12.4l-8.3-18.5c-1.9-4.3,1.1-9.1,5.7-9.1h110.9c4.6,0,7.6,4.9,5.7,9.1l-8.3,18.5c-3.4,7.5-10.7,12.4-18.8,12.4Z"/>
          <g>
            <g>
              <ellipse class="st42" cx="171" cy="451.4" rx="17.5" ry="17"/>
              <ellipse class="st43" cx="167.2" cy="455.7" rx="8.9" ry="8.7"/>
              <ellipse class="st5" cx="174.6" cy="444.1" rx="7.4" ry="7.2"/>
            </g>
            <g>
              <ellipse class="st42" cx="386.7" cy="451.4" rx="17.5" ry="17"/>
              <ellipse class="st43" cx="382.9" cy="455.7" rx="8.9" ry="8.7"/>
              <ellipse class="st5" cx="390.3" cy="444.1" rx="7.4" ry="7.2"/>
            </g>
          </g>
          <g>
            <path d="M167.3,397.7h223.2c4.7,0,8.2-4.1,7.3-8.6-4.1-19.7-8.6-40.7-12-53.4-.6-2.2-2.6-3.7-4.9-3.7h-203.9c-2.3,0-4.4,1.5-4.9,3.7-3.4,12.7-7.9,33.7-12,53.4-.9,4.5,2.6,8.6,7.3,8.6Z"/>
            <path class="st24" d="M162.1,389.1c-.1.7-.1,1.4,0,2h233.8c0-.7,0-1.3,0-2-3.4-16.5-7.1-34-10.1-46.7-.7-2.9-3.3-4.9-6.3-4.9h-200.7c-3,0-5.6,2-6.3,4.9-3.1,12.7-6.8,30.2-10.1,46.7Z"/>
            <rect class="st18" x="177.1" y="343.1" width="203.6" height="41.7" rx="20.9" ry="20.9"/>
            <path class="st35" d="M353.4,386.4h-10.1v-4.1h.6c3.1,0,5.4-3.1,4.8-6.4l-3-15.2c-1.1-5.5-5.6-9.5-10.9-9.5h-8.2c-5.3,0-9.8,4-10.9,9.5l-3,15.2c-.6,3.3,1.7,6.4,4.8,6.4h.6v4.1h-10.1c-3,0-5.7,1.9-7.1,4.8h59.5c-1.4-2.8-4.1-4.8-7.1-4.8ZM249.7,386.4h-10.1v-4.1h.6c3.1,0,5.4-3.1,4.8-6.4l-3-15.2c-1.1-5.5-5.6-9.5-10.9-9.5h-8.2c-5.3,0-9.8,4-10.9,9.5l-3,15.2c-.6,3.3,1.7,6.4,4.8,6.4h.6v4.1h-10.1c-3,0-5.7,1.9-7.1,4.8h59.5c-1.4-2.8-4.1-4.8-7.1-4.8Z"/>
            <path class="st25" d="M242.9,384.8h-12.4v-4.2h.7c3.8,0,6.7-3.2,5.9-6.5l-3.7-15.6c-1.3-5.7-6.9-9.8-13.4-9.8h-10.1c-6.5,0-12.1,4.1-13.4,9.8l-3.7,15.6c-.8,3.4,2.1,6.5,5.9,6.5h.7v4.2h-12.4c-4.3,0-8,2.6-9.5,6.3h74.9c-1.5-3.7-5.2-6.3-9.5-6.3ZM370.7,384.8h-12.4v-4.2h.7c3.8,0,6.7-3.2,5.9-6.5l-3.7-15.6c-1.3-5.7-6.9-9.8-13.4-9.8h-10.1c-6.5,0-12.1,4.1-13.4,9.8l-3.7,15.6c-.8,3.4,2.1,6.5,5.9,6.5h.7v4.2h-12.4c-4.3,0-8,2.6-9.5,6.3h74.9c-1.5-3.7-5.2-6.3-9.5-6.3Z"/>
            <path class="st19" d="M383.7,378.5h-209.6c-4.3,0-8.2,1.9-10.8,4.9-.4,2-.8,3.9-1.2,5.8-.1.7-.1,1.4,0,2h233.8c0-.7,0-1.3,0-2-.4-1.9-.8-3.9-1.2-5.8-2.6-3-6.5-4.9-10.8-4.9Z"/>
            <path class="st6" d="M258.7,361.2h131.2c-1.5-6.8-2.9-13.3-4.3-18.8-.7-2.9-3.3-4.9-6.3-4.9h-200.7c-3,0-5.6,2-6.3,4.9-3.1,12.7-6.8,30.2-10.1,46.7-.1.7-.1,1.4,0,2h41.3c11.6-18.2,32.3-30,55.4-30Z"/>
          </g>
        </g>
      </g>
    </g>
  </g>
</svg>